# WaveFront *.obj file (generated by Autodesk ATF)

mtllib Assembly1.mtl

g Solid1

v -1.431785 -0.896425 -0.323342
v -1.431785 -0.896425 0.676658
v -1.431785 0.103575 -0.323342
v -1.431785 0.103575 0.676658
v -0.565759 -1.396425 -0.323342
v -0.565759 -1.396425 0.676658
v -0.565759 0.603575 -0.323342
v -0.565759 0.603575 0.676658
v 0.300266 -0.896425 -0.323342
v 0.300266 -0.896425 0.676658
v 0.300266 0.103575 -0.323342
v 0.300266 0.103575 0.676658
vt 0.000000 0.000000 0.000000
vt 2.540000 0.000000 0.000000
vt 2.540000 2.540000 0.000000
vt 0.000000 2.540000 0.000000
vt 0.000000 0.000000 0.000000
vt 2.540000 0.000000 0.000000
vt 2.540000 2.540000 0.000000
vt 0.000000 2.540000 0.000000
vt 0.000000 0.000000 0.000000
vt 2.540000 0.000000 0.000000
vt 2.540000 2.540000 0.000000
vt 0.000000 2.540000 0.000000
vt 0.000000 0.000000 0.000000
vt 2.540000 0.000000 0.000000
vt 2.540000 2.540000 0.000000
vt 0.000000 2.540000 0.000000
vt 0.000000 0.000000 0.000000
vt 2.540000 0.000000 0.000000
vt 2.540000 2.540000 0.000000
vt 0.000000 2.540000 0.000000
vt 0.000000 0.000000 0.000000
vt 2.540000 0.000000 0.000000
vt 2.540000 2.540000 0.000000
vt 0.000000 2.540000 0.000000
vt -2.199704 1.270000 0.000000
vt -2.199704 -1.270000 0.000000
vt 0.000000 -2.540000 0.000000
vt 2.199704 -1.270000 0.000000
vt 2.199704 1.270000 0.000000
vt 0.000000 2.540000 0.000000
vt 2.199704 -1.270000 0.000000
vt 2.199704 1.270000 0.000000
vt -0.000000 2.540000 0.000000
vt -2.199704 1.270000 0.000000
vt -2.199704 -1.270000 0.000000
vt -0.000000 -2.540000 0.000000
vn -1.270000 2.199704 -0.000000
vn -1.270000 2.199704 -0.000000
vn -1.270000 2.199704 -0.000000
vn -1.270000 2.199704 -0.000000
vn 1.270000 2.199704 -0.000000
vn 1.270000 2.199704 -0.000000
vn 1.270000 2.199704 -0.000000
vn 1.270000 2.199704 -0.000000
vn 2.540000 -0.000000 0.000000
vn 2.540000 -0.000000 0.000000
vn 2.540000 -0.000000 0.000000
vn 2.540000 -0.000000 0.000000
vn 1.270000 -2.199704 0.000000
vn 1.270000 -2.199704 0.000000
vn 1.270000 -2.199704 0.000000
vn 1.270000 -2.199704 0.000000
vn -1.270000 -2.199704 0.000000
vn -1.270000 -2.199704 0.000000
vn -1.270000 -2.199704 0.000000
vn -1.270000 -2.199704 0.000000
vn -2.540000 0.000000 -0.000000
vn -2.540000 0.000000 -0.000000
vn -2.540000 0.000000 -0.000000
vn -2.540000 0.000000 -0.000000
vn -0.000000 0.000000 2.540000
vn -0.000000 0.000000 2.540000
vn -0.000000 0.000000 2.540000
vn -0.000000 0.000000 2.540000
vn -0.000000 0.000000 2.540000
vn -0.000000 0.000000 2.540000
vn 0.000000 -0.000000 -2.540000
vn 0.000000 -0.000000 -2.540000
vn 0.000000 -0.000000 -2.540000
vn 0.000000 -0.000000 -2.540000
vn 0.000000 -0.000000 -2.540000
vn 0.000000 -0.000000 -2.540000
usemtl 191,191,191
f 7/1/1 3/2/2 8/4/4
f 8/4/4 3/2/2 4/3/3
f 11/5/5 7/6/6 12/8/8
f 12/8/8 7/6/6 8/7/7
f 9/9/9 11/10/10 10/12/12
f 10/12/12 11/10/10 12/11/11
f 5/13/13 9/14/14 6/16/16
f 6/16/16 9/14/14 10/15/15
f 1/17/17 5/18/18 2/20/20
f 2/20/20 5/18/18 6/19/19
f 3/21/21 1/22/22 4/24/24
f 4/24/24 1/22/22 2/23/23
f 2/26/26 6/27/27 4/25/25
f 4/25/25 6/27/27 8/30/30
f 8/30/30 6/27/27 10/28/28
f 8/30/30 10/28/28 12/29/29
f 3/32/32 7/33/33 1/31/31
f 1/31/31 7/33/33 5/36/36
f 5/36/36 7/33/33 11/34/34
f 5/36/36 11/34/34 9/35/35

g Solid1:1

v -1.053572 -0.293428 1.176658
v -1.053572 -0.293428 0.676658
v -1.053572 -0.501340 1.176658
v -1.053572 -0.501340 0.676658
v -0.969007 -0.103491 1.176658
v -0.969007 -0.103491 0.676658
v -0.969007 -0.691276 1.176658
v -0.969007 -0.691276 0.676658
v -0.814499 0.035629 1.176658
v -0.814499 0.035629 0.676658
v -0.814499 -0.830396 1.176658
v -0.814499 -0.830396 0.676658
v -0.616763 0.099877 1.176658
v -0.616763 0.099877 0.676658
v -0.616763 -0.894645 1.176658
v -0.616763 -0.894645 0.676658
v -0.409990 0.078144 1.176658
v -0.409990 0.078144 0.676658
v -0.409990 -0.872912 1.176658
v -0.409990 -0.872912 0.676658
v -0.229933 -0.025811 1.176658
v -0.229933 -0.025811 0.676658
v -0.229933 -0.768956 1.176658
v -0.229933 -0.768956 0.676658
v -0.107726 -0.194015 1.176658
v -0.107726 -0.194015 0.676658
v -0.107726 -0.600752 1.176658
v -0.107726 -0.600752 0.676658
v -0.064499 -0.397384 1.176658
v -0.064499 -0.397384 0.676658
vt -1.270000 0.000000 0.000000
vt -1.270000 -0.531976 0.000000
vt -1.270000 -1.063953 0.000000
vt -1.270000 -1.595929 0.000000
vt -1.270000 -2.127905 0.000000
vt -1.270000 -2.659882 0.000000
vt -1.270000 -3.191858 0.000000
vt -1.270000 -3.723835 0.000000
vt -1.270000 3.723835 0.000000
vt -1.270000 3.191858 0.000000
vt -1.270000 2.659882 0.000000
vt -1.270000 2.127905 0.000000
vt -1.270000 1.595929 0.000000
vt -1.270000 1.063953 0.000000
vt -1.270000 0.531976 0.000000
vt -0.000000 0.000000 0.000000
vt -0.000000 0.531976 0.000000
vt -0.000000 1.063953 0.000000
vt -0.000000 1.595929 0.000000
vt -0.000000 2.127905 0.000000
vt -0.000000 2.659882 0.000000
vt -0.000000 3.191858 0.000000
vt -0.000000 -4.255811 0.000000
vt -0.000000 -3.723835 0.000000
vt -0.000000 -3.191858 0.000000
vt -0.000000 -2.659882 0.000000
vt -0.000000 -2.127905 0.000000
vt -0.000000 -1.595929 0.000000
vt -0.000000 -1.063953 0.000000
vt -0.000000 -0.531976 0.000000
vt -0.000000 3.723835 0.000000
vt -0.000000 3.723835 0.000000
vt -1.270000 -4.255811 0.000000
vt -1.270000 -4.255811 0.000000
vt 1.270000 0.000000 0.000000
vt 1.160203 0.516556 0.000000
vt 0.849796 0.943794 0.000000
vt 0.392452 1.207842 0.000000
vt -0.132751 1.263043 0.000000
vt -0.635000 1.099852 0.000000
vt -1.027452 0.746487 0.000000
vt -1.242247 0.264048 0.000000
vt -1.242247 -0.264048 0.000000
vt -1.027452 -0.746487 0.000000
vt -0.635000 -1.099852 0.000000
vt -0.132751 -1.263043 0.000000
vt 0.392452 -1.207842 0.000000
vt 0.849796 -0.943794 0.000000
vt 1.160203 -0.516556 0.000000
vt -1.270000 0.000000 0.000000
vt -1.160203 -0.516556 0.000000
vt -0.849796 -0.943794 0.000000
vt -0.392452 -1.207842 0.000000
vt 0.132751 -1.263043 0.000000
vt 0.635000 -1.099852 0.000000
vt 1.027452 -0.746487 0.000000
vt 1.242247 -0.264048 0.000000
vt 1.242247 0.264048 0.000000
vt 1.027452 0.746487 0.000000
vt 0.635000 1.099852 0.000000
vt 0.132751 1.263043 0.000000
vt -0.392452 1.207842 0.000000
vt -0.849796 0.943794 0.000000
vt -1.160203 0.516556 0.000000
vn 2.540000 -0.000000 0.000000
vn 2.320405 1.033111 -0.000000
vn 1.699592 1.887588 -0.000000
vn 0.784903 2.415684 -0.000000
vn -0.265502 2.526086 -0.000000
vn -1.270000 2.199704 -0.000000
vn -2.054903 1.492975 -0.000000
vn -2.484495 0.528096 -0.000000
vn -2.484495 -0.528096 -0.000000
vn -2.054903 -1.492975 0.000000
vn -1.270000 -2.199704 0.000000
vn -0.265502 -2.526086 0.000000
vn 0.784903 -2.415684 0.000000
vn 1.699592 -1.887588 0.000000
vn 2.320405 -1.033111 0.000000
vn 2.540000 -0.000000 0.000000
vn 2.320405 -1.033111 0.000000
vn 1.699592 -1.887588 0.000000
vn 0.784903 -2.415684 0.000000
vn -0.265502 -2.526086 0.000000
vn -1.270000 -2.199704 0.000000
vn -2.054903 -1.492975 0.000000
vn -2.484495 -0.528096 -0.000000
vn -2.484495 0.528096 -0.000000
vn -2.054903 1.492975 -0.000000
vn -1.270000 2.199704 -0.000000
vn -0.265502 2.526086 -0.000000
vn 0.784903 2.415684 -0.000000
vn 1.699592 1.887588 -0.000000
vn 2.320405 1.033111 -0.000000
vn -2.484495 -0.528096 -0.000000
vn -2.484495 -0.528096 -0.000000
vn -2.484495 -0.528096 -0.000000
vn -2.484495 -0.528096 -0.000000
vn 0.000000 -0.000000 -2.540000
vn 0.000000 -0.000000 -2.540000
vn 0.000000 -0.000000 -2.540000
vn 0.000000 -0.000000 -2.540000
vn 0.000000 -0.000000 -2.540000
vn 0.000000 -0.000000 -2.540000
vn 0.000000 -0.000000 -2.540000
vn 0.000000 -0.000000 -2.540000
vn 0.000000 -0.000000 -2.540000
vn 0.000000 -0.000000 -2.540000
vn 0.000000 -0.000000 -2.540000
vn 0.000000 -0.000000 -2.540000
vn 0.000000 -0.000000 -2.540000
vn 0.000000 -0.000000 -2.540000
vn 0.000000 -0.000000 -2.540000
vn -0.000000 0.000000 2.540000
vn -0.000000 0.000000 2.540000
vn -0.000000 0.000000 2.540000
vn -0.000000 0.000000 2.540000
vn -0.000000 0.000000 2.540000
vn -0.000000 0.000000 2.540000
vn -0.000000 0.000000 2.540000
vn -0.000000 0.000000 2.540000
vn -0.000000 0.000000 2.540000
vn -0.000000 0.000000 2.540000
vn -0.000000 0.000000 2.540000
vn -0.000000 0.000000 2.540000
vn -0.000000 0.000000 2.540000
vn -0.000000 0.000000 2.540000
vn -0.000000 0.000000 2.540000
f 38/38/38 41/52/52 42/37/37
f 42/37/37 41/52/52 39/53/53
f 42/37/37 39/53/53 40/51/51
f 40/51/51 39/53/53 35/54/54
f 40/51/51 35/54/54 36/50/50
f 36/50/50 35/54/54 31/55/55
f 36/50/50 31/55/55 32/49/49
f 32/49/49 31/55/55 27/56/56
f 32/49/49 27/56/56 28/48/48
f 28/48/48 27/56/56 23/57/57
f 28/48/48 23/57/57 24/47/47
f 24/47/47 23/57/57 19/58/58
f 24/47/47 19/58/58 20/46/46
f 20/46/46 19/58/58 15/67/67
f 20/46/46 15/68/68 16/45/45
f 16/69/69 15/59/59 13/60/60
f 16/70/70 13/60/60 14/44/44
f 14/44/44 13/60/60 17/61/61
f 14/44/44 17/61/61 18/43/43
f 18/43/43 17/61/61 21/62/62
f 18/43/43 21/62/62 22/42/42
f 22/42/42 21/62/62 25/63/63
f 22/42/42 25/63/63 26/41/41
f 26/41/41 25/63/63 29/64/64
f 26/41/41 29/64/64 30/40/40
f 30/40/40 29/64/64 33/65/65
f 30/40/40 33/65/65 34/39/39
f 34/39/39 33/65/65 37/66/66
f 34/39/39 37/66/66 38/38/38
f 38/38/38 37/66/66 41/52/52
f 42/71/71 40/72/72 38/85/85
f 38/85/85 40/72/72 36/73/73
f 38/85/85 36/73/73 34/84/84
f 34/84/84 36/73/73 32/74/74
f 34/84/84 32/74/74 30/83/83
f 30/83/83 32/74/74 28/75/75
f 30/83/83 28/75/75 26/82/82
f 26/82/82 28/75/75 24/76/76
f 26/82/82 24/76/76 22/81/81
f 22/81/81 24/76/76 20/77/77
f 22/81/81 20/77/77 18/80/80
f 18/80/80 20/77/77 16/78/78
f 18/80/80 16/78/78 14/79/79
f 41/86/86 37/87/87 39/100/100
f 39/100/100 37/87/87 35/99/99
f 35/99/99 37/87/87 33/88/88
f 35/99/99 33/88/88 31/98/98
f 31/98/98 33/88/88 29/89/89
f 31/98/98 29/89/89 27/97/97
f 27/97/97 29/89/89 25/90/90
f 27/97/97 25/90/90 23/96/96
f 23/96/96 25/90/90 21/91/91
f 23/96/96 21/91/91 19/95/95
f 19/95/95 21/91/91 17/92/92
f 19/95/95 17/92/92 15/94/94
f 15/94/94 17/92/92 13/93/93

# 42 vertices
# 100 texture params
# 100 normals
# 76 facets

# 2 groups
