# WaveFront *.obj file (generated by Autodesk ATF)

mtllib 六角椎.mtl

g Solid1

v -8.779520 0.000000 0.000000
v -4.389760 0.000000 -7.603288
v -4.389760 0.000000 7.603288
v 0.000000 13.169280 0.000000
v 4.389760 0.000000 -7.603288
v 4.389760 0.000000 7.603288
v 8.779520 0.000000 0.000000
vt 0.000000 0.000000 0.000000
vt -0.438976 1.520658 0.000000
vt -0.877952 0.000000 0.000000
vt 0.000000 0.000000 0.000000
vt -0.438976 1.520658 0.000000
vt -0.877952 0.000000 0.000000
vt 0.000000 0.000000 0.000000
vt -0.438976 1.520658 0.000000
vt -0.877952 0.000000 0.000000
vt 0.000000 0.000000 0.000000
vt -0.438976 1.520658 0.000000
vt -0.877952 0.000000 0.000000
vt 0.000000 0.000000 0.000000
vt -0.438976 1.520658 0.000000
vt -0.877952 0.000000 0.000000
vt 0.000000 0.000000 0.000000
vt -0.438976 1.520658 0.000000
vt -0.877952 0.000000 0.000000
vt -0.760329 0.438976 0.000000
vt -0.760329 -0.438976 0.000000
vt -0.000000 -0.877952 0.000000
vt 0.760329 -0.438976 0.000000
vt 0.760329 0.438976 0.000000
vt -0.000000 0.877952 0.000000
vn -0.075000 0.050000 0.043301
vn -0.075000 0.050000 0.043301
vn -0.075000 0.050000 0.043301
vn -0.075000 0.050000 -0.043301
vn -0.075000 0.050000 -0.043301
vn -0.075000 0.050000 -0.043301
vn 0.000000 0.050000 -0.086603
vn 0.000000 0.050000 -0.086603
vn 0.000000 0.050000 -0.086603
vn 0.075000 0.050000 -0.043301
vn 0.075000 0.050000 -0.043301
vn 0.075000 0.050000 -0.043301
vn 0.075000 0.050000 0.043301
vn 0.075000 0.050000 0.043301
vn 0.075000 0.050000 0.043301
vn 0.000000 0.050000 0.086603
vn 0.000000 0.050000 0.086603
vn 0.000000 0.050000 0.086603
vn 0.000000 -0.100000 0.000000
vn 0.000000 -0.100000 0.000000
vn 0.000000 -0.100000 0.000000
vn 0.000000 -0.100000 0.000000
vn 0.000000 -0.100000 0.000000
vn 0.000000 -0.100000 0.000000
usemtl 191,191,191
f 3/1/1 4/2/2 1/3/3
f 1/4/4 4/5/5 2/6/6
f 2/7/7 4/8/8 5/9/9
f 5/10/10 4/11/11 7/12/12
f 7/13/13 4/14/14 6/15/15
f 6/16/16 4/17/17 3/18/18
f 3/20/20 1/21/21 6/19/19
f 6/19/19 1/21/21 7/24/24
f 7/24/24 1/21/21 2/22/22
f 7/24/24 2/22/22 5/23/23

# 7 vertices
# 24 texture params
# 24 normals
# 10 facets

# 1 groups
